<mxfile host="65bd71144e">
    <diagram id="7SbYdQXOMm_CoKq9H-nz" name="Page-1">
        <mxGraphModel dx="581" dy="560" grid="1" gridSize="8" guides="1" tooltips="1" connect="1" arrows="1" fold="1" page="1" pageScale="1" pageWidth="1169" pageHeight="827" background="#ffffff" math="0" shadow="0">
            <root>
                <MiscDiagram modelType="MiscDiagram" lastModifiedUserId="dbush@ibm.com" description="" lastModified="2022-01-26T00:45:27Z" _id="miscdiagram_Hyn1rXY4t" label="RPA on OCP" id="0">
                    <mxCell/>
                </MiscDiagram>
                <mxCell id="1" parent="0"/>
                <mxCell id="miscdiagram_Hyn1rXY4t_23dyTaMRE6i8" value="" style="rounded=1;whiteSpace=wrap;html=1;" parent="1" vertex="1">
                    <mxGeometry x="620" y="59" width="208" height="421" as="geometry"/>
                </mxCell>
                <mxCell id="miscdiagram_Hyn1rXY4t_33dyTaMRZ9v4" value="" style="rounded=1;whiteSpace=wrap;html=1;" parent="1" vertex="1">
                    <mxGeometry x="610" y="50" width="208" height="421" as="geometry"/>
                </mxCell>
                <UserObject placeholders="1" label="MS SQL Server (as pod)" Icon-Name="data--base" id="miscdiagram_Hyn1rXY4t_43dyTaMR7ND2">
                    <mxCell style="shape=mxgraph.ibm2mondrian.base;shapeType=ln;shapeLayout=collapsed;colorFamily=cyan;colorBackground=noColor:noColor;html=1;whiteSpace=wrap;metaEdit=1;strokeWidth=1;collapsible=0;recursiveResize=0;expand=0;fontFamily=IBM Plex Sans;fontColor=#000000;fontSize=14;image=;verticalAlign=top;align=center;spacing=0;spacingLeft=0;spacingRight=0;spacingTop=0;spacingBottom=0;verticalLabelPosition=bottom;labelPosition=center;positionText=bottom;container=1" parent="1" vertex="1">
                        <mxGeometry x="358" y="536" width="48" height="48" as="geometry"/>
                    </mxCell>
                </UserObject>
                <UserObject placeholders="1" label="SMTP (Optional for Email)" Icon-Name="ibm-cloud--internet-services" id="miscdiagram_Hyn1rXY4t_53dyTaMRAY5K">
                    <mxCell style="shape=mxgraph.ibm2mondrian.base;shapeType=pn;shapeLayout=collapsed;colorFamily=blue;colorBackground=noColor:noColor;html=1;whiteSpace=wrap;metaEdit=1;strokeWidth=1;collapsible=0;recursiveResize=0;expand=0;fontFamily=IBM Plex Sans;fontColor=#000000;fontSize=14;image=;verticalAlign=top;align=center;spacing=0;spacingLeft=0;spacingRight=0;spacingTop=0;spacingBottom=0;verticalLabelPosition=bottom;labelPosition=center;positionText=bottom;container=1" parent="1" vertex="1">
                        <mxGeometry x="438" y="536" width="48" height="48" as="geometry"/>
                    </mxCell>
                </UserObject>
                <mxCell id="miscdiagram_Hyn1rXY4t_63dyTaMRhkqC" value="" style="endArrow=none;html=1;jumpStyle=arc;jumpSize=8;rounded=1;edgeStyle=orthogonalEdgeStyle;" parent="1" source="miscdiagram_Hyn1rXY4t_43dyTaMR7ND2" target="miscdiagram_Hyn1rXY4t_263dyTaMRcZLZ" edge="1">
                    <mxGeometry width="50" height="50" relative="1" as="geometry">
                        <mxPoint x="-42" y="603" as="sourcePoint"/>
                        <mxPoint x="8" y="553" as="targetPoint"/>
                    </mxGeometry>
                </mxCell>
                <UserObject placeholders="1" label="250 GB RWX FS Storage" Icon-Name="block-storage--alt" id="miscdiagram_Hyn1rXY4t_73dyTaMRvDEL">
                    <mxCell style="shape=mxgraph.ibm2mondrian.base;shapeType=ln;shapeLayout=collapsed;colorFamily=cyan;colorBackground=noColor:noColor;html=1;whiteSpace=wrap;metaEdit=1;strokeWidth=1;collapsible=0;recursiveResize=0;expand=0;fontFamily=IBM Plex Sans;fontColor=#000000;fontSize=14;image=;verticalAlign=top;align=center;spacing=0;spacingLeft=0;spacingRight=0;spacingTop=0;spacingBottom=0;verticalLabelPosition=bottom;labelPosition=center;positionText=bottom;container=1;labelWidth=71;" parent="1" vertex="1">
                        <mxGeometry x="268" y="536" width="48" height="48" as="geometry"/>
                    </mxCell>
                </UserObject>
                <mxCell id="miscdiagram_Hyn1rXY4t_83dyTaMRduQT" value="" style="rounded=1;whiteSpace=wrap;html=1;" parent="1" vertex="1">
                    <mxGeometry x="600" y="39" width="208" height="421" as="geometry"/>
                </mxCell>
                <UserObject placeholders="1" label="Windows Desktop" Icon-Name="virtual-desktop" id="miscdiagram_Hyn1rXY4t_93dyTaMRp3Ac">
                    <mxCell style="shape=mxgraph.ibm2mondrian.base;shapeType=ln;shapeLayout=collapsed;colorFamily=magenta;colorBackground=noColor:noColor;html=1;whiteSpace=wrap;metaEdit=1;strokeWidth=1;collapsible=0;recursiveResize=0;expand=0;fontFamily=IBM Plex Sans;fontColor=#000000;fontSize=14;image=;verticalAlign=top;align=center;spacing=0;spacingLeft=0;spacingRight=0;spacingTop=0;spacingBottom=0;verticalLabelPosition=bottom;labelPosition=center;positionText=bottom;container=1" parent="1" vertex="1">
                        <mxGeometry x="624" y="59" width="48" height="48" as="geometry"/>
                    </mxCell>
                </UserObject>
                <UserObject placeholders="1" label="RPA Studio (Dev only)" Icon-Name="cube" id="miscdiagram_Hyn1rXY4t_103dyTaMR3QdZ">
                    <mxCell style="shape=mxgraph.ibm2mondrian.base;shapeType=lg;shapeLayout=expanded;colorFamily=green;colorBackground=noColor:noColor;html=1;whiteSpace=wrap;metaEdit=1;strokeWidth=1;collapsible=0;recursiveResize=0;expand=0;fontFamily=IBM Plex Sans;fontColor=#000000;fontSize=14;image=;verticalAlign=middle;align=left;spacing=0;spacingLeft=12;spacingRight=16;spacingTop=0;spacingBottom=0;container=1" parent="1" vertex="1">
                        <mxGeometry x="628" y="322" width="152" height="68" as="geometry"/>
                    </mxCell>
                </UserObject>
                <mxCell id="miscdiagram_Hyn1rXY4t_113dyTaMRILZM" value="" style="endArrow=none;html=1;jumpStyle=arc;jumpSize=8;rounded=1;entryX=0.039;entryY=0.456;entryPerimeter=0;" parent="1" source="miscdiagram_Hyn1rXY4t_263dyTaMRcZLZ" target="miscdiagram_Hyn1rXY4t_133dyTaMRUIeD" edge="1">
                    <mxGeometry width="50" height="50" relative="1" as="geometry">
                        <mxPoint x="734" y="581" as="sourcePoint"/>
                        <mxPoint x="734" y="423" as="targetPoint"/>
                    </mxGeometry>
                </mxCell>
                <UserObject placeholders="1" label="Active Directory" Icon-Name="application" id="miscdiagram_Hyn1rXY4t_123dyTaMRwuA7">
                    <mxCell style="shape=mxgraph.ibm2mondrian.base;shapeType=ln;shapeLayout=collapsed;colorFamily=purple;colorBackground=noColor:noColor;html=1;whiteSpace=wrap;metaEdit=1;strokeWidth=1;collapsible=0;recursiveResize=0;expand=0;fontFamily=IBM Plex Sans;fontColor=#000000;fontSize=14;image=;verticalAlign=top;align=center;spacing=0;spacingLeft=0;spacingRight=0;spacingTop=0;spacingBottom=0;verticalLabelPosition=bottom;labelPosition=center;positionText=bottom;container=1" parent="1" vertex="1">
                        <mxGeometry x="192" y="536" width="48" height="48" as="geometry"/>
                    </mxCell>
                </UserObject>
                <UserObject placeholders="1" label="RPA Agent" Icon-Name="cube" _id="userobject_34ifwNIt970" id="miscdiagram_Hyn1rXY4t_133dyTaMRUIeD">
                    <mxCell style="shape=mxgraph.ibm2mondrian.base;shapeType=lg;shapeLayout=expanded;colorFamily=green;colorBackground=noColor:noColor;html=1;whiteSpace=wrap;metaEdit=1;strokeWidth=1;collapsible=0;recursiveResize=0;expand=0;fontFamily=IBM Plex Sans;fontColor=#000000;fontSize=14;image=;verticalAlign=middle;align=left;spacing=0;spacingLeft=12;spacingRight=16;spacingTop=0;spacingBottom=0;container=1" parent="1" vertex="1">
                        <mxGeometry x="628" y="209" width="152" height="68" as="geometry"/>
                    </mxCell>
                </UserObject>
                <mxCell id="miscdiagram_Hyn1rXY4t_143dyTaMR114Z" value="" style="endArrow=none;html=1;jumpStyle=arc;jumpSize=8;rounded=1;entryX=0.013;entryY=0.426;entryPerimeter=0;" parent="1" source="miscdiagram_Hyn1rXY4t_263dyTaMRcZLZ" target="miscdiagram_Hyn1rXY4t_103dyTaMR3QdZ" edge="1">
                    <mxGeometry width="50" height="50" relative="1" as="geometry">
                        <mxPoint x="686" y="677" as="sourcePoint"/>
                        <mxPoint x="736" y="627" as="targetPoint"/>
                    </mxGeometry>
                </mxCell>
                <mxCell id="miscdiagram_Hyn1rXY4t_153dyTaMRDIzZ" value="" style="endArrow=none;html=1;jumpStyle=arc;jumpSize=8;rounded=1;" parent="1" source="miscdiagram_Hyn1rXY4t_133dyTaMRUIeD" target="miscdiagram_Hyn1rXY4t_103dyTaMR3QdZ" edge="1">
                    <mxGeometry width="50" height="50" relative="1" as="geometry">
                        <mxPoint x="568" y="475" as="sourcePoint"/>
                        <mxPoint x="618" y="425" as="targetPoint"/>
                    </mxGeometry>
                </mxCell>
                <mxCell id="miscdiagram_Hyn1rXY4t_163dyTaMRMIcu" value="" style="endArrow=none;html=1;jumpStyle=arc;jumpSize=8;rounded=1;entryX=0.556;entryY=1;entryPerimeter=0;exitX=0.479;exitY=0.042;exitPerimeter=0;edgeStyle=orthogonalEdgeStyle;" parent="1" source="miscdiagram_Hyn1rXY4t_123dyTaMRwuA7" target="miscdiagram_Hyn1rXY4t_273dyTaMRa3dY" edge="1">
                    <mxGeometry width="50" height="50" relative="1" as="geometry">
                        <mxPoint x="254" y="637" as="sourcePoint"/>
                        <mxPoint x="304" y="587" as="targetPoint"/>
                    </mxGeometry>
                </mxCell>
                <mxCell id="miscdiagram_Hyn1rXY4t_173dyTaMRS0W8" style="edgeStyle=orthogonalEdgeStyle;rounded=1;orthogonalLoop=1;jettySize=auto;html=1;jumpStyle=arc;jumpSize=8;entryX=0.6;entryY=1;entryDx=0;entryDy=0;entryPerimeter=0;endArrow=none;endFill=0;" parent="1" source="miscdiagram_Hyn1rXY4t_53dyTaMRAY5K" target="miscdiagram_Hyn1rXY4t_263dyTaMRcZLZ" edge="1">
                    <mxGeometry relative="1" as="geometry"/>
                </mxCell>
                <mxCell id="miscdiagram_Hyn1rXY4t_183dyTaMRJc8t" style="edgeStyle=orthogonalEdgeStyle;rounded=1;orthogonalLoop=1;jettySize=auto;html=1;jumpStyle=arc;jumpSize=8;entryX=0.481;entryY=1.008;entryDx=0;entryDy=0;entryPerimeter=0;endArrow=none;endFill=0;" parent="1" source="miscdiagram_Hyn1rXY4t_73dyTaMRvDEL" target="miscdiagram_Hyn1rXY4t_203dyTaMRP7Kk" edge="1">
                    <mxGeometry relative="1" as="geometry"/>
                </mxCell>
                <UserObject placeholders="1" label="&lt;span style=&quot;font-family: &amp;#34;ibm plex sans&amp;#34;&quot;&gt;OpenShift 4.7-4.8 Cluster&lt;/span&gt;" Icon-Name="logo--openshift" id="miscdiagram_Hyn1rXY4t_193dyTaMRdqtR">
                    <mxCell style="shape=mxgraph.ibm2mondrian.base;shapeType=pg;shapeLayout=expanded;colorFamily=green;colorBackground=noColor:noColor;strokeWidth=1;html=1;whiteSpace=wrap;metaEdit=1;collapsible=0;recursiveResize=0;expand=0;fontFamily=IBM Plex Sans SmBld;fontColor=#000000;fontSize=14;image=;verticalAlign=top;align=left;spacing=0;spacingLeft=16;spacingRight=16;spacingTop=0;spacingBottom=0;container=1" parent="1" vertex="1">
                        <mxGeometry x="16" y="32.5" width="536" height="456" as="geometry"/>
                    </mxCell>
                </UserObject>
                <UserObject placeholders="1" label="x86 Worker Node (3)" Icon-Name="cloud-services" _id="userobject_36i7iYzmzx2" id="miscdiagram_Hyn1rXY4t_203dyTaMRP7Kk">
                    <mxCell style="shape=mxgraph.ibm2mondrian.base;shapeType=lg;shapeLayout=expanded;colorFamily=blue;colorBackground=noColor:noColor;html=1;whiteSpace=wrap;metaEdit=1;strokeWidth=1;collapsible=0;recursiveResize=0;expand=0;fontFamily=IBM Plex Sans;fontColor=#000000;fontSize=14;image=;verticalAlign=top;align=left;spacing=0;spacingLeft=12;spacingRight=16;spacingTop=0;spacingBottom=0;container=1" parent="miscdiagram_Hyn1rXY4t_193dyTaMRdqtR" vertex="1">
                        <mxGeometry x="16" y="48" width="506" height="389" as="geometry"/>
                    </mxCell>
                </UserObject>
                <mxCell id="miscdiagram_Hyn1rXY4t_213dyTaMRJDlO" value="16 Gi" style="text;html=1;strokeColor=none;fillColor=none;align=center;verticalAlign=middle;whiteSpace=wrap;rounded=0;" parent="miscdiagram_Hyn1rXY4t_203dyTaMRP7Kk" vertex="1">
                    <mxGeometry x="354" y="17" width="40" height="20" as="geometry"/>
                </mxCell>
                <mxCell id="miscdiagram_Hyn1rXY4t_223dyTaMRIYc8" value="8 Cores" style="text;html=1;strokeColor=none;fillColor=none;align=center;verticalAlign=middle;whiteSpace=wrap;rounded=0;" parent="miscdiagram_Hyn1rXY4t_203dyTaMRP7Kk" vertex="1">
                    <mxGeometry x="402" y="17" width="48" height="20" as="geometry"/>
                </mxCell>
                <UserObject placeholders="1" label="RPA Namespace" Icon-Name="border--none" id="miscdiagram_Hyn1rXY4t_233dyTaMRQRGg">
                    <mxCell style="shape=mxgraph.ibm2mondrian.base;shapeType=lg;shapeLayout=expanded;colorFamily=green;colorBackground=noColor:noColor;html=1;whiteSpace=wrap;metaEdit=1;strokeWidth=1;collapsible=0;recursiveResize=0;expand=0;fontFamily=IBM Plex Sans;fontColor=#000000;fontSize=14;image=;verticalAlign=top;align=left;spacing=0;spacingLeft=12;spacingRight=16;spacingTop=0;spacingBottom=0;container=1" parent="miscdiagram_Hyn1rXY4t_203dyTaMRP7Kk" vertex="1">
                        <mxGeometry x="18" y="49" width="470" height="323" as="geometry"/>
                    </mxCell>
                </UserObject>
                <UserObject placeholders="1" label="IBM MQ" Icon-Name="cube" _id="userobject_32Uk0eSDdvN" id="miscdiagram_Hyn1rXY4t_243dyTaMRYpFT">
                    <mxCell style="shape=mxgraph.ibm2mondrian.base;shapeType=lg;shapeLayout=expanded;colorFamily=green;colorBackground=noColor:noColor;html=1;whiteSpace=wrap;metaEdit=1;strokeWidth=1;collapsible=0;recursiveResize=0;expand=0;fontFamily=IBM Plex Sans;fontColor=#000000;fontSize=14;image=;verticalAlign=middle;align=left;spacing=0;spacingLeft=12;spacingRight=16;spacingTop=0;spacingBottom=0;container=1" parent="miscdiagram_Hyn1rXY4t_233dyTaMRQRGg" vertex="1">
                        <mxGeometry x="162" y="56" width="144" height="64" as="geometry"/>
                    </mxCell>
                </UserObject>
                <UserObject placeholders="1" label="Redis" Icon-Name="cube" _id="userobject_32Uk57xUjQN" id="miscdiagram_Hyn1rXY4t_253dyTaMR4eEF">
                    <mxCell style="shape=mxgraph.ibm2mondrian.base;shapeType=lg;shapeLayout=expanded;colorFamily=green;colorBackground=noColor:noColor;html=1;whiteSpace=wrap;metaEdit=1;strokeWidth=1;collapsible=0;recursiveResize=0;expand=0;fontFamily=IBM Plex Sans;fontColor=#000000;fontSize=14;image=;verticalAlign=middle;align=left;spacing=0;spacingLeft=12;spacingRight=16;spacingTop=0;spacingBottom=0;container=1" parent="miscdiagram_Hyn1rXY4t_233dyTaMRQRGg" vertex="1">
                        <mxGeometry x="314" y="56" width="144" height="64" as="geometry"/>
                    </mxCell>
                </UserObject>
                <UserObject placeholders="1" label="RPA Robot Runner" Icon-Name="cube" _id="userobject_32UdcglKTdE" id="miscdiagram_Hyn1rXY4t_263dyTaMRcZLZ">
                    <mxCell style="shape=mxgraph.ibm2mondrian.base;shapeType=lg;shapeLayout=expanded;colorFamily=green;colorBackground=noColor:noColor;html=1;whiteSpace=wrap;metaEdit=1;strokeWidth=1;collapsible=0;recursiveResize=0;expand=0;fontFamily=IBM Plex Sans;fontColor=#000000;fontSize=14;image=;verticalAlign=middle;align=left;spacing=0;spacingLeft=12;spacingRight=16;spacingTop=0;spacingBottom=0;container=1" parent="miscdiagram_Hyn1rXY4t_233dyTaMRQRGg" vertex="1">
                        <mxGeometry x="314" y="129.5" width="144" height="64" as="geometry"/>
                    </mxCell>
                </UserObject>
                <UserObject placeholders="1" label="LDAP" Icon-Name="cube" _id="userobject_34idkg7VEpK" id="miscdiagram_Hyn1rXY4t_273dyTaMRa3dY">
                    <mxCell style="shape=mxgraph.ibm2mondrian.base;shapeType=lg;shapeLayout=expanded;colorFamily=green;colorBackground=noColor:noColor;html=1;whiteSpace=wrap;metaEdit=1;strokeWidth=1;collapsible=0;recursiveResize=0;expand=0;fontFamily=IBM Plex Sans;fontColor=#000000;fontSize=14;image=;verticalAlign=middle;align=left;spacing=0;spacingLeft=12;spacingRight=16;spacingTop=0;spacingBottom=0;container=1" parent="miscdiagram_Hyn1rXY4t_233dyTaMRQRGg" vertex="1">
                        <mxGeometry x="162" y="129.5" width="144" height="64" as="geometry"/>
                    </mxCell>
                </UserObject>
                <UserObject placeholders="1" label="RPA Operator" Icon-Name="cube" _id="userobject_34iesXgsAHN" id="miscdiagram_Hyn1rXY4t_283dyTaMRTEYz">
                    <mxCell style="shape=mxgraph.ibm2mondrian.base;shapeType=lg;shapeLayout=expanded;colorFamily=green;colorBackground=noColor:noColor;html=1;whiteSpace=wrap;metaEdit=1;strokeWidth=1;collapsible=0;recursiveResize=0;expand=0;fontFamily=IBM Plex Sans;fontColor=#000000;fontSize=14;image=;verticalAlign=middle;align=left;spacing=0;spacingLeft=12;spacingRight=16;spacingTop=0;spacingBottom=0;container=1" parent="miscdiagram_Hyn1rXY4t_233dyTaMRQRGg" vertex="1">
                        <mxGeometry x="10" y="56" width="144" height="64" as="geometry"/>
                    </mxCell>
                </UserObject>
                <UserObject placeholders="1" label="Redis Operator" Icon-Name="cube" _id="userobject_34ig5zLbHcS" id="miscdiagram_Hyn1rXY4t_293dyTaMRLlik">
                    <mxCell style="shape=mxgraph.ibm2mondrian.base;shapeType=lg;shapeLayout=expanded;colorFamily=green;colorBackground=noColor:noColor;html=1;whiteSpace=wrap;metaEdit=1;strokeWidth=1;collapsible=0;recursiveResize=0;expand=0;fontFamily=IBM Plex Sans;fontColor=#000000;fontSize=14;image=;verticalAlign=middle;align=left;spacing=0;spacingLeft=12;spacingRight=16;spacingTop=0;spacingBottom=0;container=1" parent="miscdiagram_Hyn1rXY4t_233dyTaMRQRGg" vertex="1">
                        <mxGeometry x="10" y="129.5" width="144" height="64" as="geometry"/>
                    </mxCell>
                </UserObject>
                <UserObject placeholders="1" label="MQ Operator" Icon-Name="cube" _id="userobject_34iga6Qsryc" id="miscdiagram_Hyn1rXY4t_303dyTaMRu5nh">
                    <mxCell style="shape=mxgraph.ibm2mondrian.base;shapeType=lg;shapeLayout=expanded;colorFamily=green;colorBackground=noColor:noColor;html=1;whiteSpace=wrap;metaEdit=1;strokeWidth=1;collapsible=0;recursiveResize=0;expand=0;fontFamily=IBM Plex Sans;fontColor=#000000;fontSize=14;image=;verticalAlign=middle;align=left;spacing=0;spacingLeft=12;spacingRight=16;spacingTop=0;spacingBottom=0;container=1" parent="miscdiagram_Hyn1rXY4t_233dyTaMRQRGg" vertex="1">
                        <mxGeometry x="10" y="205" width="144" height="64" as="geometry"/>
                    </mxCell>
                </UserObject>
            </root>
        </mxGraphModel>
    </diagram>
</mxfile>